**ABCDEFGHIJKLMNOPQRSTUVWXYZabcdefghijklmnopqrstuvwxyz**************************
**PARASOLID !"#$%&'()*+,-./:;<=>?@[\]^_`{|}~0123456789**************************
**PART1;
MC=AMD64;
MC_MODEL=Intel64 Family 6 Model 85 Stepping 7, GenuineIntel;
MC_ID=unknown;
OS=Windows_NT;
OS_RELEASE=unknown;
FRU=Parasolid Version 33.1, build 255,  1- 8-2022;
APPL=SOLIDWORKS 2022-2022076;
SITE=;
USER=unknown;
FORMAT=text;
GUISE=transmit;
KEY=FILESensor_mount_2.x_t;
DATE=Thu Mar 28 20:30:42 2024;
**PART2;
SCH=SCH_3301255_33103;
USFLD_SIZE=0;
**PART3;
**END_OF_HEADER*****************************************************************
T51 : TRANSMIT FILE created by modeller version 330125523 SCH_3301255_33103_1300
6230 0 10 21 CCCCI7 lattice222 0 CCCI4 mesh1006 0 I8 polyline1008 0 CCCCCCCCCCA1
6 mesh_offset_data206 0 Z1 103 2 3 0 0 0 0 0 0 0 0 1e3 1e-8 0 0 0 1 0 1 4 0 81 2
55 1 2 103 5 1 0 0 0 0 0 70 11 CI9 list_type0 0 1 uI10 notransmit0 0 1 lCCCDCCDI
12 finger_index0 0 1 dI12 finger_block1012 0 CZ3 0 4 T1 0 0 1 20 1 6 6 11 255 4
 101 0 1 7 8 1 9 0 10 0 12 35 CCCI7 lattice222 0 CCCI4 mesh1006 0 I8 polyline100
8 0 CCCCCCCDI5 owner1040 0 CCCCCCI13 boundary_mesh1006 0 I17 boundary_polyline10
08 0 CCCA16 index_map_offset0 0 1 dA9 index_map82 0 A17 node_id_index_map82 0 A2
0 schema_embedding_map82 0 A5 child12 0 A14 lowest_node_id0 0 1 dA16 mesh_offset
_data206 0 Z7 90 11 12 0 0 0 0 0 0 0 1e3 1e-8 4 13 0 1 0 3 1 14 15 16 17 0 0 18
 19 20 0 0 0 0 0 0 0 100 10 CCCCCCCCCA9 precision229 0 Z8 102 4 0 0 .49999999999
9992 -.866025403784444 -570377078901171e-29 -.866025403784443 -.499999999999992
 329307360043187e-29 -570377078901171e-29 3293073600431875e-30 -1 .0519615242270
666 .0299999999999995 .0019999999999998 1 3 ?0 11 9 99 0 1 13 21 1 22 4 23 0 12
 13 82 24 25 0 0 0 0 0 0 0 1e3 1e-8 9 26 7 1 0 3 1 27 28 29 30 0 0 31 32 33 0 0
 0 0 0 0 0 100 21 100 9 0 0 .499999999999992 -.866025403784444 -570377078901171e
-29 -.866025403784443 -.499999999999992 329307360043187e-29 -570377078901171e-29
 3293073600431875e-30 -1 .0519615242270666 .0299999999999995 .0019999999999998 1
 3 ?0 11 22 97 0 1 26 34 1 35 9 36 0 12 26 62 37 38 0 0 0 0 0 0 0 1e3 1e-8 22 39
 13 1 0 3 1 40 41 42 43 0 0 44 45 46 0 0 0 0 0 0 0 100 34 98 22 0 0 .49999999999
9992 -.866025403784444 -570377078901171e-29 -.866025403784443 -.499999999999992
 329307360043187e-29 -570377078901171e-29 3293073600431875e-30 -1 .0519615242270
666 .0299999999999995 .0019999999999998 1 3 ?0 11 35 95 0 1 39 47 1 48 22 49 0 1
2 39 82 50 51 0 0 0 0 0 0 0 1e3 1e-8 35 52 26 1 0 3 1 53 54 55 56 0 0 57 58 59 0
 0 0 0 0 0 0 100 47 96 35 0 0 .499999999999992 -.866025403784444 -57037707890117
1e-29 -.866025403784443 -.499999999999992 329307360043187e-29 -570377078901171e-
29 3293073600431875e-30 -1 .0519615242270666 .0299999999999995 .0019999999999998
 1 3 ?0 11 48 93 0 1 52 60 1 61 35 62 0 12 52 86 63 64 0 0 0 0 0 0 0 1e3 1e-8 48
 65 39 1 0 3 1 66 67 68 69 0 0 70 71 72 0 0 0 0 0 0 0 100 60 94 48 0 0 .49999999
9999992 -.866025403784444 -570377078901171e-29 -.866025403784443 -.4999999999999
92 329307360043187e-29 -570377078901171e-29 3293073600431875e-30 -1 .05196152422
70666 .0299999999999995 .0019999999999998 1 3 ?0 11 61 91 0 1 65 73 1 74 48 75 0
 12 65 82 76 77 0 0 0 0 0 0 0 1e3 1e-8 61 78 52 1 0 3 1 79 80 81 82 0 0 83 84 85
 0 0 0 0 0 0 0 100 73 92 61 0 0 .499999999999992 -.866025403784444 -570377078901
171e-29 -.866025403784443 -.499999999999992 329307360043187e-29 -570377078901171
e-29 3293073600431875e-30 -1 .0519615242270666 .0299999999999995 .00199999999999
98 1 3 ?0 11 74 89 0 1 78 86 1 87 61 88 0 12 78 82 89 90 0 0 0 0 0 0 0 1e3 1e-8
 74 91 65 1 0 3 1 92 93 94 95 0 0 96 97 98 0 0 0 0 0 0 0 100 86 90 74 0 0 .49999
9999999992 -.866025403784444 -570377078901171e-29 -.866025403784443 -.4999999999
99992 329307360043187e-29 -570377078901171e-29 3293073600431875e-30 -1 .05196152
42270666 .0299999999999995 .0019999999999998 1 3 ?0 11 87 87 0 1 91 99 1 100 74
 101 0 12 91 82 102 103 0 0 0 0 0 0 0 1e3 1e-8 87 104 78 1 0 3 1 105 106 107 108
 0 0 109 110 111 0 0 0 0 0 0 0 100 99 88 87 0 0 .499999999999992 -.8660254037844
44 -570377078901171e-29 -.866025403784443 -.499999999999992 329307360043187e-29
 -570377078901171e-29 3293073600431875e-30 -1 .0519615242270666 .029999999999999
5 .0019999999999998 1 3 ?0 11 100 85 0 1 104 112 1 113 87 114 0 12 104 82 115 11
6 0 0 0 0 0 0 0 1e3 1e-8 100 117 91 1 0 3 1 118 119 120 121 0 0 122 123 124 0 0
 0 0 0 0 0 100 112 86 100 0 0 .499999999999992 -.866025403784444 -57037707890117
1e-29 -.866025403784443 -.499999999999992 329307360043187e-29 -570377078901171e-
29 3293073600431875e-30 -1 .0519615242270666 .0299999999999995 .0019999999999998
 1 3 ?0 11 113 83 0 1 117 125 1 126 100 127 0 12 117 62 128 129 0 0 0 0 0 0 0 1e
3 1e-8 113 130 104 1 0 3 1 131 132 133 134 0 0 135 136 137 0 0 0 0 0 0 0 100 125
 84 113 0 0 .499999999999992 -.866025403784444 -570377078901171e-29 -.8660254037
84443 -.499999999999992 329307360043187e-29 -570377078901171e-29 329307360043187
5e-30 -1 .0519615242270666 .0299999999999995 .0019999999999998 1 3 ?0 11 126 81
 0 1 130 138 1 139 113 140 0 12 130 62 141 142 0 0 0 0 0 0 0 1e3 1e-8 126 143 11
7 1 0 3 1 144 145 146 147 0 0 148 149 150 0 0 0 0 0 0 0 100 138 82 126 0 0 .4999
99999999992 -.866025403784444 -570377078901171e-29 -.866025403784443 -.499999999
999992 329307360043187e-29 -570377078901171e-29 3293073600431875e-30 -1 .0519615
242270666 .0299999999999995 .0019999999999998 1 3 ?0 11 139 79 0 1 143 151 1 152
 126 153 0 12 143 66 154 155 0 0 0 0 0 0 0 1e3 1e-8 139 156 130 1 0 3 1 157 158
 159 160 0 0 161 162 163 0 0 0 0 0 0 0 100 151 80 139 0 0 .499999999999992 -.866
025403784444 -570377078901171e-29 -.866025403784443 -.499999999999992 3293073600
43187e-29 -570377078901171e-29 3293073600431875e-30 -1 .0519615242270666 .029999
9999999995 .0019999999999998 1 3 ?0 11 152 77 0 1 156 164 1 165 139 166 0 12 156
 62 167 168 0 0 0 0 0 0 0 1e3 1e-8 152 169 143 1 0 3 1 170 171 172 173 0 0 174 1
75 176 0 0 0 0 0 0 0 100 164 78 152 0 0 .499999999999992 -.866025403784444 -5703
77078901171e-29 -.866025403784443 -.499999999999992 329307360043187e-29 -5703770
78901171e-29 3293073600431875e-30 -1 .0519615242270666 .0299999999999995 .001999
9999999998 1 3 ?0 11 165 75 0 1 169 177 1 178 152 179 0 12 169 62 180 181 0 0 0
 0 0 0 0 1e3 1e-8 165 182 156 1 0 3 1 183 184 185 186 0 0 187 188 189 0 0 0 0 0
 0 0 100 177 76 165 0 0 .499999999999992 -.866025403784444 -570377078901171e-29
 -.866025403784443 -.499999999999992 329307360043187e-29 -570377078901171e-29 32
93073600431875e-30 -1 .0519615242270666 .0299999999999995 .0019999999999998 1 3
 ?0 11 178 73 0 1 182 190 1 191 165 192 0 12 182 62 193 194 0 0 0 0 0 0 0 1e3 1e
-8 178 195 169 1 0 3 1 196 197 198 199 0 0 200 201 202 0 0 0 0 0 0 0 100 190 74
 178 0 0 .499999999999992 -.866025403784444 -570377078901171e-29 -.8660254037844
43 -.499999999999992 329307360043187e-29 -570377078901171e-29 3293073600431875e-
30 -1 .0519615242270666 .0299999999999995 .0019999999999998 1 3 ?0 11 191 71 0 1
 195 203 1 204 178 205 0 12 195 1110 206 207 0 0 0 0 0 0 0 1e3 1e-8 191 208 182
 1 0 1 1 209 210 211 212 0 0 213 214 215 0 0 0 0 0 0 0 100 203 72 191 0 0 .49999
9999999992 -.866025403784444 -570377078901171e-29 -.866025403784443 -.4999999999
99992 329307360043187e-29 -570377078901171e-29 3293073600431875e-30 -1 .05196152
42270666 .0299999999999995 .0019999999999998 1 3 ?0 11 204 69 0 1 208 216 1 10 1
91 217 0 12 208 1080 218 219 0 0 0 0 0 0 0 1e3 1e-8 204 220 195 1 0 1 1 221 222
 223 224 0 0 225 226 227 0 0 0 0 0 0 0 100 216 70 204 0 0 .499999999999992 -.866
025403784444 -570377078901171e-29 -.866025403784443 -.499999999999992 3293073600
43187e-29 -570377078901171e-29 3293073600431875e-30 -1 .0519615242270666 .029999
9999999995 .0019999999999998 1 3 ?0 11 10 67 0 1 7 228 1 23 204 229 4 100 228 68
 10 0 0 .5 .866025403784436 -570377078901176e-29 .866025403784436 -.5 -329307360
0431845e-30 -570377078901176e-29 -3293073600431845e-30 -1 -.0519615242270662 .03
 .0020000000000002 1 3 ?0 11 23 65 0 1 13 230 1 36 10 231 9 100 230 66 23 0 0 .5
 .866025403784436 -570377078901176e-29 .866025403784436 -.5 -3293073600431845e-3
0 -570377078901176e-29 -3293073600431845e-30 -1 -.0519615242270662 .03 .00200000
00000002 1 3 ?0 11 36 63 0 1 26 232 1 49 23 233 22 100 232 64 36 0 0 .5 .8660254
03784436 -570377078901176e-29 .866025403784436 -.5 -3293073600431845e-30 -570377
078901176e-29 -3293073600431845e-30 -1 -.0519615242270662 .03 .0020000000000002
 1 3 ?0 11 49 61 0 1 39 234 1 62 36 235 35 100 234 62 49 0 0 .5 .866025403784436
 -570377078901176e-29 .866025403784436 -.5 -3293073600431845e-30 -57037707890117
6e-29 -3293073600431845e-30 -1 -.0519615242270662 .03 .0020000000000002 1 3 ?0 1
1 62 59 0 1 52 236 1 75 49 237 48 100 236 60 62 0 0 .5 .866025403784436 -5703770
78901176e-29 .866025403784436 -.5 -3293073600431845e-30 -570377078901176e-29 -32
93073600431845e-30 -1 -.0519615242270662 .03 .0020000000000002 1 3 ?0 11 75 57 0
 1 65 238 1 88 62 239 61 100 238 58 75 0 0 .5 .866025403784436 -570377078901176e
-29 .866025403784436 -.5 -3293073600431845e-30 -570377078901176e-29 -32930736004
31845e-30 -1 -.0519615242270662 .03 .0020000000000002 1 3 ?0 11 88 55 0 1 78 240
 1 101 75 241 74 100 240 56 88 0 0 .5 .866025403784436 -570377078901176e-29 .866
025403784436 -.5 -3293073600431845e-30 -570377078901176e-29 -3293073600431845e-3
0 -1 -.0519615242270662 .03 .0020000000000002 1 3 ?0 11 101 53 0 1 91 242 1 114
 88 243 87 100 242 54 101 0 0 .5 .866025403784436 -570377078901176e-29 .86602540
3784436 -.5 -3293073600431845e-30 -570377078901176e-29 -3293073600431845e-30 -1
 -.0519615242270662 .03 .0020000000000002 1 3 ?0 11 114 51 0 1 104 244 1 127 101
 245 100 100 244 52 114 0 0 .5 .866025403784436 -570377078901176e-29 .8660254037
84436 -.5 -3293073600431845e-30 -570377078901176e-29 -3293073600431845e-30 -1 -.
0519615242270662 .03 .0020000000000002 1 3 ?0 11 127 49 0 1 117 246 1 140 114 24
7 113 100 246 50 127 0 0 .5 .866025403784436 -570377078901176e-29 .8660254037844
36 -.5 -3293073600431845e-30 -570377078901176e-29 -3293073600431845e-30 -1 -.051
9615242270662 .03 .0020000000000002 1 3 ?0 11 140 47 0 1 130 248 1 153 127 249 1
26 100 248 48 140 0 0 .5 .866025403784436 -570377078901176e-29 .866025403784436
 -.5 -3293073600431845e-30 -570377078901176e-29 -3293073600431845e-30 -1 -.05196
15242270662 .03 .0020000000000002 1 3 ?0 11 153 45 0 1 143 250 1 166 140 251 139
 100 250 46 153 0 0 .5 .866025403784436 -570377078901176e-29 .866025403784436 -.
5 -3293073600431845e-30 -570377078901176e-29 -3293073600431845e-30 -1 -.05196152
42270662 .03 .0020000000000002 1 3 ?0 11 166 43 0 1 156 252 1 179 153 253 152 10
0 252 44 166 0 0 .5 .866025403784436 -570377078901176e-29 .866025403784436 -.5 -
3293073600431845e-30 -570377078901176e-29 -3293073600431845e-30 -1 -.05196152422
70662 .03 .0020000000000002 1 3 ?0 11 179 41 0 1 169 254 1 192 166 255 165 100 2
54 42 179 0 0 .5 .866025403784436 -570377078901176e-29 .866025403784436 -.5 -329
3073600431845e-30 -570377078901176e-29 -3293073600431845e-30 -1 -.05196152422706
62 .03 .0020000000000002 1 3 ?0 11 192 39 0 1 182 256 1 205 179 257 178 100 256
 40 192 0 0 .5 .866025403784436 -570377078901176e-29 .866025403784436 -.5 -32930
73600431845e-30 -570377078901176e-29 -3293073600431845e-30 -1 -.0519615242270662
 .03 .0020000000000002 1 3 ?0 11 205 37 0 1 195 258 1 217 192 259 191 100 258 38
 205 0 0 .5 .866025403784436 -570377078901176e-29 .866025403784436 -.5 -32930736
00431845e-30 -570377078901176e-29 -3293073600431845e-30 -1 -.0519615242270662 .0
3 .0020000000000002 1 3 ?0 11 217 35 0 1 208 260 1 229 205 261 204 100 260 36 21
7 0 0 .5 .866025403784436 -570377078901176e-29 .866025403784436 -.5 -32930736004
31845e-30 -570377078901176e-29 -3293073600431845e-30 -1 -.0519615242270662 .03 .
0020000000000002 1 3 ?0 11 229 33 0 1 7 262 1 231 217 0 10 100 262 34 229 0 0 -1
 1110223024625156e-31 0 2220446049250315e-31 1 0 0 0 -1 -666133814775094e-32 -.0
6 .002 1 3 ?0 11 231 31 0 1 13 263 1 233 229 0 23 100 263 32 231 0 0 -1 11102230
24625156e-31 0 2220446049250315e-31 1 0 0 0 -1 -666133814775094e-32 -.06 .002 1
 3 ?0 11 233 29 0 1 26 264 1 235 231 0 36 100 264 30 233 0 0 -1 1110223024625156
e-31 0 2220446049250315e-31 1 0 0 0 -1 -666133814775094e-32 -.06 .002 1 3 ?0 11
 235 27 0 1 39 265 1 237 233 0 49 100 265 28 235 0 0 -1 1110223024625156e-31 0 2
220446049250315e-31 1 0 0 0 -1 -666133814775094e-32 -.06 .002 1 3 ?0 11 237 25 0
 1 52 266 1 239 235 0 62 100 266 26 237 0 0 -1 1110223024625156e-31 0 2220446049
250315e-31 1 0 0 0 -1 -666133814775094e-32 -.06 .002 1 3 ?0 11 239 23 0 1 65 267
 1 241 237 0 75 100 267 24 239 0 0 -1 1110223024625156e-31 0 2220446049250315e-3
1 1 0 0 0 -1 -666133814775094e-32 -.06 .002 1 3 ?0 11 241 21 0 1 78 268 1 243 23
9 0 88 100 268 22 241 0 0 -1 1110223024625156e-31 0 2220446049250315e-31 1 0 0 0
 -1 -666133814775094e-32 -.06 .002 1 3 ?0 11 243 19 0 1 91 269 1 245 241 0 101 1
00 269 20 243 0 0 -1 1110223024625156e-31 0 2220446049250315e-31 1 0 0 0 -1 -666
133814775094e-32 -.06 .002 1 3 ?0 11 245 17 0 1 104 270 1 247 243 0 114 100 270
 18 245 0 0 -1 1110223024625156e-31 0 2220446049250315e-31 1 0 0 0 -1 -666133814
775094e-32 -.06 .002 1 3 ?0 11 247 15 0 1 117 271 1 249 245 0 127 100 271 16 247
 0 0 -1 1110223024625156e-31 0 2220446049250315e-31 1 0 0 0 -1 -666133814775094e
-32 -.06 .002 1 3 ?0 11 249 13 0 1 130 272 1 251 247 0 140 100 272 14 249 0 0 -1
 1110223024625156e-31 0 2220446049250315e-31 1 0 0 0 -1 -666133814775094e-32 -.0
6 .002 1 3 ?0 11 251 11 0 1 143 273 1 253 249 0 153 100 273 12 251 0 0 -1 111022
3024625156e-31 0 2220446049250315e-31 1 0 0 0 -1 -666133814775094e-32 -.06 .002
 1 3 ?0 11 253 9 0 1 156 274 1 255 251 0 166 100 274 10 253 0 0 -1 1110223024625
156e-31 0 2220446049250315e-31 1 0 0 0 -1 -666133814775094e-32 -.06 .002 1 3 ?0
 11 255 7 0 1 169 275 1 257 253 0 179 100 275 8 255 0 0 -1 1110223024625156e-31
 0 2220446049250315e-31 1 0 0 0 -1 -666133814775094e-32 -.06 .002 1 3 ?0 11 257
 5 0 1 182 276 1 259 255 0 192 100 276 6 257 0 0 -1 1110223024625156e-31 0 22204
46049250315e-31 1 0 0 0 -1 -666133814775094e-32 -.06 .002 1 3 ?0 11 259 3 0 1 19
5 277 1 261 257 0 205 100 277 4 259 0 0 -1 1110223024625156e-31 0 22204460492503
15e-31 1 0 0 0 -1 -666133814775094e-32 -.06 .002 1 3 ?0 11 261 1 0 1 208 278 1 0
 259 0 217 100 278 2 261 0 0 -1 1110223024625156e-31 0 2220446049250315e-31 1 0
 0 0 -1 -666133814775094e-32 -.06 .002 1 3 ?0 81 1 218 1080 5 208 279 0 0 0 280
 70 219 0 4 T208 0 0 5 20 1 281 281 13 255 221 131 0 208 0 282 0 0 283 0 51 255
 222 126 0 284 285 0 0 --.0665549343399047 -756478892309699e-32 .002 0 0 -1 .003
5 -1 0 0 30 255 223 130 0 226 286 0 0 +-.05 -.01 .002 0 0 -1 29 255 224 102 0 28
7 288 0 -.075 -.01 0 19 8 CCCCCCCA5 owner12 0 Z225 44 0 208 283 0 289 V0 16 255
 226 109 0 ?290 0 291 223 0 0 208 18 255 227 40 0 292 0 293 294 ?208 17 255 292
 0 295 296 297 227 298 299 0 300 +18 293 37 0 301 227 302 303 ?208 29 294 42 0 2
27 303 304 -.075 -.01 .002 29 303 39 0 293 305 294 -.075 .01 .002 29 304 105 0 3
06 294 307 -.05 -.01 0 18 306 95 0 308 309 0 304 ?208 29 307 104 0 309 304 288 -
.05 .01 0 18 309 94 0 310 311 306 307 ?208 29 288 103 0 311 307 224 -.075 .01 0
 18 311 93 0 312 287 309 288 ?208 17 312 0 313 314 298 311 301 315 0 316 +18 287
 92 0 314 317 311 224 ?208 17 314 0 313 300 312 287 316 318 0 319 +18 317 31 0 3
20 302 287 321 ?208 17 320 0 322 290 323 317 324 325 0 296 -18 302 34 0 324 293
 317 305 ?208 29 321 33 0 317 0 305 -.05 -.01 .002 29 305 36 0 302 321 303 -.05
 .01 .002 17 324 0 295 297 296 302 320 325 0 323 +15 255 295 5 0 296 326 0 17 29
7 0 295 292 324 293 327 328 0 0 -17 296 0 295 324 292 317 329 330 0 331 +16 325
 16 0 ?324 328 330 332 0 0 208 17 323 0 322 320 333 302 310 291 0 327 -15 322 11
4 0 333 334 0 17 333 0 322 323 290 309 308 335 0 336 +17 310 0 337 338 327 309 3
23 291 0 333 +16 291 108 0 ?310 226 315 286 0 0 208 17 327 0 337 310 301 302 297
 328 0 0 +15 337 112 0 338 339 0 17 301 0 337 327 338 293 312 315 0 298 -16 328
 21 0 ?327 299 325 340 0 0 208 16 299 26 0 ?292 341 328 342 0 0 208 30 340 23 0
 328 332 342 0 +-27755575615629e-31 .01 .002 1 277555756156289e-30 0 30 332 18 0
 325 343 340 0 +-.05 0 .002 0 1 0 30 342 28 0 299 340 344 0 +-.075 0 .002 0 -1 0
 31 255 344 101 0 345 342 346 0 +-.0665549343399047 -756478892309699e-32 0 0 0 1
 1 0 0 .0035 16 345 87 0 ?347 348 0 344 0 0 208 30 346 100 0 348 344 349 0 +2081
66817117217e-32 -.01 0 1 208166817117217e-30 0 16 348 82 0 ?350 335 345 346 0 0
 208 30 349 99 0 335 346 351 0 +-.05 0 0 0 1 0 16 335 77 0 ?333 352 348 349 0 0
 208 30 351 98 0 352 349 353 0 +-27755575615629e-31 .01 0 1 277555756156289e-30
 0 16 352 72 0 ?336 318 335 351 0 0 208 30 353 97 0 318 351 354 0 +-.075 0 0 0 -
1 0 16 318 67 0 ?314 355 352 353 0 0 208 30 354 127 0 341 353 356 0 +-.075 -.01
 .002 0 0 -1 16 341 106 0 ?319 315 299 354 0 0 208 30 356 128 0 315 354 286 0 +-
.075 .01 .002 0 0 -1 16 315 107 0 ?312 291 341 356 0 0 208 30 286 129 0 291 356
 223 0 +-.05 .01 .002 0 0 -1 17 319 0 357 350 329 287 300 341 0 358 +15 357 116
 0 350 282 0 17 350 0 357 331 319 306 358 348 0 0 +17 329 0 357 319 331 227 296
 330 0 0 -17 300 0 313 298 314 227 319 341 0 329 -17 358 0 359 316 308 287 350 3
48 0 0 -15 359 66 0 358 360 0 17 316 0 359 336 358 311 314 318 0 338 -17 308 0 3
59 358 336 306 333 335 0 290 -17 336 0 359 308 316 309 338 352 0 0 +17 290 0 322
 333 320 306 331 226 0 350 +17 331 0 357 329 350 317 290 226 0 0 -17 338 0 337 3
01 310 311 336 352 0 0 -14 255 360 64 361 ?0 326 362 221 363 -0 0 0 326 289 81 1
 361 1079 364 360 365 0 366 0 367 14 326 1 366 ?360 368 369 221 370 +0 0 360 368
 289 15 362 65 0 347 360 359 50 255 363 96 0 360 370 371 0 +0 0 0 0 0 1 1 0 0 13
 289 45 0 0 0 0 0 0 225 282 14 282 117 372 ?334 0 357 221 285 -0 0 334 0 289 81
 1 372 1073 364 282 373 0 0 374 375 14 334 115 374 ?339 282 322 221 376 -0 0 339
 282 289 50 285 125 0 282 376 222 0 +208166817117217e-32 -.01 .002 -208166817117
217e-30 1 0 -1 -208166817117217e-30 0 50 376 124 0 334 377 285 0 +-.05 0 .002 -1
 0 0 0 0 1 50 377 123 0 339 371 376 0 +-27755575615629e-31 .01 .002 -27755575615
6289e-30 1 0 -1 -277555756156289e-30 0 14 339 113 378 ?284 334 337 221 377 +0 0
 284 334 289 50 371 122 0 368 363 377 0 +-.075 0 .002 1 0 0 0 0 -1 14 368 111 37
9 ?326 284 313 221 371 -0 0 326 284 289 81 1 379 1077 364 368 380 0 381 366 382
 14 284 119 381 ?368 339 383 221 222 +0 0 368 339 289 15 313 110 0 314 368 0 81
 1 381 1076 364 284 384 0 378 379 385 15 383 118 0 386 284 387 17 386 0 383 386
 386 0 388 355 0 0 +15 387 120 0 389 284 0 17 389 0 387 389 389 0 347 345 0 0 -1
7 347 0 362 347 347 0 389 345 0 0 +17 388 0 369 388 388 0 386 355 0 0 -16 355 6
 0 ?386 330 318 390 0 0 208 16 330 11 0 ?296 325 355 343 0 0 208 31 390 8 0 355
 0 343 0 +-.0665549343399047 -756478892309699e-32 .002 0 0 1 1 0 0 .0035 30 343
 13 0 330 390 332 0 +208166817117217e-32 -.01 .002 1 208166817117217e-30 0 15 36
9 4 0 388 326 295 80 255 1 364 0 391 8001 0 0 0 0 3 5 0 0 0 FFFFTFTFFFFFFF2 81 1
 384 1071 392 284 0 381 380 0 393 81 1 378 1075 364 339 394 0 374 381 395 83 255
 3 385 .792156862745098 .819607843137255 .933333333333333 81 1 394 1067 392 339
 0 378 396 380 397 81 1 374 1074 364 334 396 0 372 378 398 83 3 395 .79215686274
5098 .819607843137255 .933333333333333 81 1 396 1065 392 334 0 374 373 394 399 8
3 3 398 .792156862745098 .819607843137255 .933333333333333 80 1 392 400 401 9000
 1 1 1 1 1 1 1 1 0 FFFFTFTFFFFFFF1 81 1 373 1063 392 282 0 372 402 396 403 82 25
5 1 399 2114912532 81 1 402 1061 392 326 0 366 365 373 404 82 1 403 2115240212 8
1 1 366 1078 364 326 402 0 379 361 405 81 1 365 1059 392 360 0 361 0 402 406 82
 1 404 2105868564 82 1 406 2112225556 83 3 405 .792156862745098 .819607843137255
 .933333333333333 79 255 14 401 SWEntUnchanged81 1 380 1069 392 368 0 379 394 38
4 407 82 1 397 2114715924 82 1 407 2114453780 82 1 393 2115502356 79 15 391 SDL/
TYSA_COLOUR83 3 382 .792156862745098 .819607843137255 .933333333333333 83 3 375
 .792156862745098 .819607843137255 .933333333333333 50 370 3 0 326 0 363 0 +0 0
 .002 0 0 1 1 0 0 83 3 367 .792156862745098 .819607843137255 .933333333333333 17
 298 0 313 312 300 293 292 299 0 297 -19 283 132 0 208 0 225 221 S0 74 4 CI16 in
dex_map_offset0 0 1 dCCZ20 281 5 0 0 384 408 279 361 218 0 0 0 0 0 0 0 0 0 0 0 0
 0 0 0 81 2 408 174 409 208 0 279 0 0 410 0 81 3 279 839 411 208 408 218 0 0 412
 413 414 80 3 411 415 416 9000 0 1 0 0 1 1 1 1 0 FFTFFFFFFFFFFF1 1 1 82 1 412 12
746115 82 1 413 510 82 1 414 12746264 79 13 416 TempAxisFaces80 2 409 417 418 80
04 0 0 0 0 3 5 0 0 0 FFTFFFFFFFFFFF2 3 83 1 410 1e3 79 16 418 SDL/TYSA_DENSITY80
 1 5 419 420 8017 0 0 0 0 0 0 0 0 0 TTTTTTTTTTTTTF3 84 255 12 280 Sensor_Mount79
 13 420 SDL/TYSA_NAME81 1 206 1110 5 195 421 0 0 0 422 70 207 0 4 T195 0 0 5 20
 1 423 423 13 209 131 0 195 0 424 0 0 425 0 50 210 126 0 424 426 0 0 +.05 0 .002
 -1 0 0 0 0 1 30 211 130 0 214 427 0 0 +.05 -.01 .002 0 0 -1 29 212 102 0 428 42
9 0 .05 .01 0 19 213 44 0 195 425 0 430 V0 16 214 109 0 ?431 0 432 211 0 0 195 1
8 215 40 0 433 0 434 435 ?195 17 433 0 436 437 438 215 439 440 0 441 -18 434 37
 0 442 215 443 444 ?195 29 435 42 0 215 444 445 .05 .01 .002 29 444 39 0 434 446
 435 .075 .01 .002 29 445 105 0 447 435 448 .05 -.01 0 18 447 95 0 431 449 0 445
 ?195 29 448 104 0 449 445 429 .075 -.01 0 18 449 94 0 450 451 447 448 ?195 29 4
29 103 0 451 448 212 .075 .01 0 18 451 93 0 452 428 449 429 ?195 17 452 0 436 43
8 437 451 442 453 0 454 +18 428 92 0 439 455 451 212 ?195 17 439 0 456 457 441 4
28 433 440 0 458 +18 455 31 0 459 443 428 460 ?195 17 459 0 456 441 457 455 431
 214 0 461 -18 443 34 0 462 434 455 446 ?195 29 460 33 0 455 0 446 .05 -.01 .002
 29 446 36 0 443 460 444 .075 -.01 .002 17 462 0 463 464 465 443 461 466 0 467 +
15 463 4 0 465 468 469 17 464 0 463 470 462 434 471 472 0 437 -17 465 0 463 462
 470 455 441 473 0 0 -17 461 0 474 431 467 455 462 466 0 465 -16 466 11 0 ?462 4
72 473 475 0 0 195 17 467 0 474 461 476 443 450 432 0 471 -15 474 118 0 476 477
 0 17 476 0 474 467 431 449 478 479 0 480 +17 450 0 481 454 471 449 467 432 0 47
6 +16 432 108 0 ?450 214 453 427 0 0 195 17 471 0 481 450 442 443 464 472 0 0 +1
5 481 116 0 454 482 0 17 442 0 481 471 454 434 452 453 0 464 -16 472 16 0 ?471 4
83 466 484 0 0 195 16 483 21 0 ?437 485 472 486 0 0 195 30 484 18 0 472 475 486
 0 +.075 0 .002 0 -1 0 30 475 13 0 466 487 484 0 +138777878078145e-32 -.01 .002
 1 1387778780781446e-31 0 30 486 23 0 483 484 488 0 +-693889390390725e-33 .01 .0
02 1 693889390390723e-31 0 31 488 28 0 485 486 489 0 -.0665549343399048 89579725
7316042e-31 .002 0 0 1 1 0 0 .0035 16 485 26 0 ?490 440 483 488 0 0 195 30 489 1
01 0 491 488 492 0 +.05 0 0 0 1 0 16 491 87 0 ?458 479 0 489 0 0 195 30 492 100
 0 479 489 493 0 +138777878078145e-32 -.01 0 1 1387778780781446e-31 0 16 479 82
 0 ?476 494 491 492 0 0 195 30 493 99 0 494 492 495 0 +.075 0 0 0 -1 0 16 494 77
 0 ?480 496 479 493 0 0 195 30 495 98 0 496 493 497 0 +-693889390390725e-33 .01
 0 1 693889390390723e-31 0 16 496 72 0 ?498 499 494 495 0 0 195 31 497 97 0 499
 495 500 0 -.0665549343399048 895797257316042e-31 0 0 0 1 1 0 0 .0035 16 499 67
 0 ?501 473 496 497 0 0 195 30 500 127 0 440 497 502 0 +.05 .01 .002 0 0 -1 16 4
40 106 0 ?439 453 485 500 0 0 195 30 502 128 0 453 500 427 0 +.075 .01 .002 0 0
 -1 16 453 107 0 ?452 432 440 502 0 0 195 30 427 129 0 432 502 211 0 +.075 -.01
 .002 0 0 -1 17 501 0 503 501 501 0 504 499 0 0 +16 473 6 0 ?441 466 499 487 0 0
 195 17 441 0 456 439 459 215 465 473 0 470 +30 487 8 0 473 0 475 0 +.05 0 .002
 0 1 0 15 456 120 0 457 424 0 17 470 0 463 465 464 215 437 483 0 0 -17 437 0 436
 452 433 434 470 483 0 0 +15 436 114 0 438 505 0 17 438 0 436 433 452 428 498 49
6 0 0 -14 505 115 506 ?507 482 436 209 508 +0 0 507 482 430 81 1 506 1106 364 50
5 509 0 510 511 512 14 507 111 511 ?468 505 513 209 514 -0 0 468 505 430 14 482
 117 510 ?505 477 481 209 515 +0 0 505 477 430 50 508 123 0 505 514 515 0 +-6938
89390390725e-33 .01 .002 -693889390390723e-31 1 0 -1 -693889390390723e-31 0 13 4
30 45 0 0 0 0 0 0 213 424 14 424 121 516 ?477 0 456 209 210 +0 0 477 0 430 81 1
 516 1103 364 424 517 0 0 518 519 14 477 119 518 ?482 424 474 209 426 -0 0 482 4
24 430 81 1 518 1104 364 477 520 0 516 510 521 50 426 125 0 477 515 210 0 +13877
7878078145e-32 -.01 .002 -1387778780781446e-31 1 0 -1 -1387778780781446e-31 0 50
 515 124 0 482 508 426 0 +.075 0 .002 1 0 0 0 0 -1 81 1 520 1097 392 477 0 518 5
17 522 523 81 1 510 1105 364 482 524 0 518 506 525 83 3 521 .792156862745098 .81
9607843137255 .933333333333333 81 1 524 1093 392 482 0 510 526 517 527 83 3 525
 .792156862745098 .819607843137255 .933333333333333 81 1 526 1091 392 507 0 511
 509 524 528 81 1 517 1095 392 424 0 516 524 520 529 82 1 527 2129985812 82 1 52
9 2130444564 81 1 511 1107 364 507 526 0 506 530 531 81 1 509 1089 392 505 0 506
 0 526 532 82 1 528 2129461524 82 1 532 2129854740 81 1 530 1108 364 468 522 0 5
11 533 534 83 3 531 .792156862745098 .819607843137255 .933333333333333 14 468 1
 530 ?535 507 463 209 536 +0 0 535 507 430 81 1 522 1099 392 468 0 530 520 537 5
38 81 1 533 1109 364 535 537 0 530 0 539 83 3 534 .792156862745098 .819607843137
255 .933333333333333 14 535 64 533 ?0 468 540 209 541 -0 0 0 468 430 81 1 537 11
01 392 535 0 533 522 0 542 83 3 539 .792156862745098 .819607843137255 .933333333
333333 82 1 542 2128347412 15 540 65 0 458 535 543 50 541 96 0 535 536 514 0 +0
 0 0 0 0 1 1 0 0 50 536 3 0 468 0 541 0 +0 0 .002 0 0 1 1 0 0 51 514 122 0 507 5
41 508 0 +.0665549343399048 895797257316042e-31 .002 0 0 -1 .0035 -1 0 0 17 458
 0 540 498 478 428 457 491 0 438 +15 543 66 0 504 535 0 17 504 0 543 504 504 0 5
01 499 0 0 -17 498 0 540 480 458 451 438 496 0 0 +17 478 0 540 458 480 447 476 4
79 0 457 -17 457 0 456 459 439 447 458 491 0 0 -17 480 0 540 478 498 449 454 494
 0 0 +17 454 0 481 442 450 451 480 494 0 498 -82 1 538 2120876308 82 1 523 21301
16884 83 3 519 .792156862745098 .819607843137255 .933333333333333 15 513 110 0 5
44 507 503 17 544 0 513 544 544 0 490 485 0 0 -15 503 112 0 501 507 0 17 490 0 4
69 490 490 0 544 485 0 0 +15 469 5 0 490 468 0 83 3 512 .792156862745098 .819607
843137255 .933333333333333 17 431 0 474 476 461 447 459 214 0 478 +19 425 132 0
 195 0 213 209 S0 74 20 423 5 0 0 537 545 421 533 206 0 0 0 0 0 0 0 0 0 0 0 0 0
 0 0 81 2 545 174 409 195 0 421 0 0 546 0 81 3 421 870 411 195 545 206 0 0 547 5
48 549 82 1 547 12746344 82 1 548 511 82 1 549 12746477 83 1 546 1e3 84 12 422 S
ensor_Mount81 1 193 62 5 182 0 0 0 0 550 70 194 0 4 T182 0 0 3 20 1 551 551 13 1
96 3 0 182 0 552 0 0 200 552 50 197 31 0 552 0 0 0 +-.06 -.01 0 .866025403784439
 0 .5 .5 0 -.866025403784439 30 198 33 0 553 554 0 0 +-.06 -.01 0 0 1 0 29 199 2
5 0 555 556 0 -.04665 .01 -.0231228782810445 19 200 1 0 182 0 0 196 V0 16 201 27
 0 ?557 0 558 554 0 0 182 18 202 5 0 559 0 560 561 ?182 17 559 0 0 0 0 202 557 2
01 0 562 -18 560 2 0 563 202 555 564 ?182 29 561 8 0 202 564 556 -.04665 -.01 -.
0231228782810445 29 564 4 0 560 0 561 -.06 -.01 0 29 556 26 0 565 561 199 -.06 .
01 0 18 565 22 0 566 555 0 556 ?182 17 566 0 0 0 0 565 563 553 0 567 +18 555 20
 0 557 560 565 199 ?182 17 557 0 568 567 562 555 559 201 0 569 +15 568 29 0 567
 552 0 17 567 0 568 563 557 565 569 570 0 0 -17 562 0 568 557 563 202 571 558 0
 0 +17 569 0 0 0 0 555 567 570 0 0 +16 570 16 0 ?569 553 0 572 0 0 182 16 553 28
 0 ?566 558 570 198 0 0 182 30 572 24 0 570 573 554 0 +-.06 .01 0 .5 0 -.8660254
03784439 30 573 7 0 558 0 572 0 +-.06 -.01 0 .5 0 -.866025403784439 30 554 32 0
 201 572 198 0 +-.04665 -.01 -.0231228782810445 0 1 0 16 558 6 0 ?562 201 553 57
3 0 0 182 17 563 0 568 562 567 560 566 553 0 571 -17 571 0 0 0 0 560 562 558 0 0
 -14 552 30 574 ?0 0 568 196 197 +0 0 0 0 196 81 1 574 61 364 552 575 0 0 0 576
 81 1 575 59 392 552 0 574 0 0 577 83 3 576 .792156862745098 .819607843137255 .9
33333333333333 82 1 577 -2130771691 74 20 551 3 0 0 575 574 193 0 0 0 0 0 0 0 0
 0 0 0 0 0 0 0 0 0 84 12 550 Sensor_Mount81 1 180 62 5 169 0 0 0 0 578 70 181 0
 4 T169 0 0 3 20 1 579 579 13 183 3 0 169 0 580 0 0 187 580 50 184 31 0 580 0 0
 0 +-.0333 -.01 -.046245756562089 .5 0 -.866025403784439 -.866025403784439 0 -.5
 30 185 33 0 581 582 0 0 +-.0333 -.01 -.046245756562089 0 1 0 29 186 25 0 583 58
4 0 -.0419602540378445 .01 -.051245756562089 19 187 1 0 169 0 0 183 V0 16 188 27
 0 ?585 0 586 582 0 0 169 18 189 5 0 587 0 588 589 ?169 17 587 0 0 0 0 189 585 1
88 0 590 -18 588 2 0 591 189 583 592 ?169 29 589 8 0 189 592 584 -.0419602540378
445 -.01 -.051245756562089 29 592 4 0 588 0 589 -.0333 -.01 -.046245756562089 29
 584 26 0 593 589 186 -.0333 .01 -.046245756562089 18 593 22 0 594 583 0 584 ?16
9 17 594 0 0 0 0 593 591 581 0 595 +18 583 20 0 585 588 593 186 ?169 17 585 0 59
6 595 590 583 587 188 0 597 +15 596 29 0 595 580 0 17 595 0 596 591 585 593 597
 598 0 0 -17 590 0 596 585 591 189 599 586 0 0 +17 597 0 0 0 0 583 595 598 0 0 +
16 598 16 0 ?597 581 0 600 0 0 169 16 581 28 0 ?594 586 598 185 0 0 169 30 600 2
4 0 598 601 582 0 +-.0333 .01 -.046245756562089 -.866025403784439 0 -.5 30 601 7
 0 586 0 600 0 +-.0333 -.01 -.046245756562089 -.866025403784439 0 -.5 30 582 32
 0 188 600 185 0 +-.0419602540378445 -.01 -.051245756562089 0 1 0 16 586 6 0 ?59
0 188 581 601 0 0 169 17 591 0 596 590 595 588 594 581 0 599 -17 599 0 0 0 0 588
 590 586 0 0 -14 580 30 602 ?0 0 596 183 184 +0 0 0 0 183 81 1 602 61 364 580 60
3 0 0 0 604 81 1 603 59 392 580 0 602 0 0 605 83 3 604 .792156862745098 .8196078
43137255 .933333333333333 82 1 605 -2141257451 74 20 579 3 0 0 603 602 180 0 0 0
 0 0 0 0 0 0 0 0 0 0 0 0 0 0 84 12 578 Sensor_Mount81 1 167 62 5 156 0 0 0 0 606
 70 168 0 4 T156 0 0 3 20 1 607 607 13 170 3 0 156 0 608 0 0 174 608 50 171 31 0
 608 0 0 0 +-.0333 -.01 -.046245756562089 -.5 0 .866025403784439 .86602540378443
9 0 .5 30 172 33 0 609 610 0 0 +-.0333 -.01 -.046245756562089 0 1 0 29 173 25 0
 611 612 0 -.0246397459621557 .01 -.04124575656208905 19 174 1 0 156 0 0 170 V0
 16 175 27 0 ?613 0 614 610 0 0 156 18 176 5 0 615 0 616 617 ?156 17 615 0 0 0 0
 176 613 175 0 618 -18 616 2 0 619 176 611 620 ?156 29 617 8 0 176 620 612 -.024
6397459621557 -.01 -.04124575656208905 29 620 4 0 616 0 617 -.0333 -.01 -.046245
756562089 29 612 26 0 621 617 173 -.0333 .01 -.046245756562089 18 621 22 0 622 6
11 0 612 ?156 17 622 0 0 0 0 621 619 609 0 623 +18 611 20 0 613 616 621 173 ?156
 17 613 0 624 623 618 611 615 175 0 625 +15 624 29 0 623 608 0 17 623 0 624 619
 613 621 625 626 0 0 -17 618 0 624 613 619 176 627 614 0 0 +17 625 0 0 0 0 611 6
23 626 0 0 +16 626 16 0 ?625 609 0 628 0 0 156 16 609 28 0 ?622 614 626 172 0 0
 156 30 628 24 0 626 629 610 0 +-.0333 .01 -.046245756562089 .866025403784439 0
 .5 30 629 7 0 614 0 628 0 +-.0333 -.01 -.046245756562089 .866025403784439 0 .5
 30 610 32 0 175 628 172 0 +-.0246397459621557 -.01 -.04124575656208905 0 1 0 16
 614 6 0 ?618 175 609 629 0 0 156 17 619 0 624 618 623 616 622 609 0 627 -17 627
 0 0 0 0 616 618 614 0 0 -14 608 30 630 ?0 0 624 170 171 +0 0 0 0 170 81 1 630 6
1 364 608 631 0 0 0 632 81 1 631 59 392 608 0 630 0 0 633 83 3 632 .792156862745
098 .819607843137255 .933333333333333 82 1 633 -2137718507 74 20 607 3 0 0 631 6
30 167 0 0 0 0 0 0 0 0 0 0 0 0 0 0 0 0 0 84 12 606 Sensor_Mount81 1 154 66 5 143
 0 0 0 0 634 70 155 0 4 T143 0 0 3 20 1 635 635 13 157 3 0 143 0 636 0 0 161 636
 50 158 31 0 636 0 0 0 +-.04665 -.01 -.0231228782810445 -.5 0 .866025403784439 .
866025403784439 0 .5 30 159 33 0 637 638 0 0 +-.04665 -.01 -.0231228782810445 0
 1 0 29 160 25 0 639 640 0 -.03798974596215575 .01 -.0181228782810445 19 161 1 0
 143 0 0 157 V0 16 162 27 0 ?641 0 642 638 0 0 143 18 163 5 0 643 0 644 645 ?143
 17 643 0 0 0 0 163 641 162 0 646 -18 644 2 0 647 163 639 648 ?143 29 645 8 0 16
3 648 640 -.03798974596215575 -.01 -.0181228782810445 29 648 4 0 644 0 645 -.046
65 -.01 -.0231228782810445 29 640 26 0 649 645 160 -.04665 .01 -.023122878281044
5 18 649 22 0 650 639 0 640 ?143 17 650 0 0 0 0 649 647 637 0 651 +18 639 20 0 6
41 644 649 160 ?143 17 641 0 652 651 646 639 643 162 0 653 +15 652 29 0 651 636
 0 17 651 0 652 647 641 649 653 654 0 0 -17 646 0 652 641 647 163 655 642 0 0 +1
7 653 0 0 0 0 639 651 654 0 0 +16 654 16 0 ?653 637 0 656 0 0 143 16 637 28 0 ?6
50 642 654 159 0 0 143 30 656 24 0 654 657 638 0 +-.04665 .01 -.0231228782810445
 .866025403784439 0 .5 30 657 7 0 642 0 656 0 +-.04665 -.01 -.0231228782810445 .
866025403784439 0 .5 30 638 32 0 162 656 159 0 +-.03798974596215575 -.01 -.01812
28782810445 0 1 0 16 642 6 0 ?646 162 637 657 0 0 143 17 647 0 652 646 651 644 6
50 637 0 655 -17 655 0 0 0 0 644 646 642 0 0 -14 636 30 658 ?0 0 652 157 158 +0
 0 0 0 157 81 1 658 65 364 636 659 0 0 0 660 81 1 659 63 392 636 0 658 0 0 661 8
3 3 660 .792156862745098 .819607843137255 .933333333333333 82 1 661 -2134245099
 74 20 635 3 0 0 659 658 154 0 0 0 0 0 0 0 0 0 0 0 0 0 0 0 0 0 84 12 634 Sensor_
Mount81 1 141 62 5 130 0 0 0 0 662 70 142 0 4 T130 0 0 3 20 1 663 663 13 144 3 0
 130 0 664 0 0 148 664 50 145 31 0 664 0 0 0 +-.04665 -.01 -.0231228782810445 .5
 0 -.866025403784439 -.866025403784439 0 -.5 30 146 33 0 665 666 0 0 +-.04665 -.
01 -.0231228782810445 0 1 0 29 147 25 0 667 668 0 -.0553102540378445 .01 -.02812
28782810445 19 148 1 0 130 0 0 144 V0 16 149 27 0 ?669 0 670 666 0 0 130 18 150
 5 0 671 0 672 673 ?130 17 671 0 0 0 0 150 669 149 0 674 -18 672 2 0 675 150 667
 676 ?130 29 673 8 0 150 676 668 -.0553102540378445 -.01 -.0281228782810445 29 6
76 4 0 672 0 673 -.04665 -.01 -.0231228782810445 29 668 26 0 677 673 147 -.04665
 .01 -.0231228782810445 18 677 22 0 678 667 0 668 ?130 17 678 0 0 0 0 677 675 66
5 0 679 +18 667 20 0 669 672 677 147 ?130 17 669 0 680 679 674 667 671 149 0 681
 +15 680 29 0 679 664 0 17 679 0 680 675 669 677 681 682 0 0 -17 674 0 680 669 6
75 150 683 670 0 0 +17 681 0 0 0 0 667 679 682 0 0 +16 682 16 0 ?681 665 0 684 0
 0 130 16 665 28 0 ?678 670 682 146 0 0 130 30 684 24 0 682 685 666 0 +-.04665 .
01 -.0231228782810445 -.866025403784439 0 -.5 30 685 7 0 670 0 684 0 +-.04665 -.
01 -.0231228782810445 -.866025403784439 0 -.5 30 666 32 0 149 684 146 0 +-.05531
02540378445 -.01 -.0281228782810445 0 1 0 16 670 6 0 ?674 149 665 685 0 0 130 17
 675 0 680 674 679 672 678 665 0 683 -17 683 0 0 0 0 672 674 670 0 0 -14 664 30
 686 ?0 0 680 144 145 +0 0 0 0 144 81 1 686 61 364 664 687 0 0 0 688 81 1 687 59
 392 664 0 686 0 0 689 83 3 688 .792156862745098 .819607843137255 .9333333333333
33 82 1 689 -2127298283 74 20 663 3 0 0 687 686 141 0 0 0 0 0 0 0 0 0 0 0 0 0 0
 0 0 0 84 12 662 Sensor_Mount81 1 128 62 5 117 0 0 0 0 690 70 129 0 4 T117 0 0 3
 20 1 691 691 13 131 3 0 117 0 692 0 0 135 692 50 132 31 0 692 0 0 0 +-.05531025
40378445 0 -.02812287828104455 459242549680258e-31 1 2651438096812275e-32 -1 459
242549680258e-31 0 30 133 33 0 693 694 0 0 +-.0553102540378445 0 -.0281228782810
4455 .5 0 -.866025403784438 29 134 25 0 695 696 0 -.0246397459621557 -1060575238
724908e-33 -.04124575656208905 19 135 1 0 117 0 0 131 V0 16 136 27 0 ?697 0 698
 694 0 0 117 18 137 5 0 699 0 700 701 ?117 17 699 0 0 0 0 137 697 136 0 702 -18
 700 2 0 703 137 695 704 ?117 29 701 8 0 137 704 696 -.0379897459621557 -1060575
238724908e-33 -.01812287828104455 29 704 4 0 700 0 701 -.0553102540378445 0 -.02
812287828104455 29 696 26 0 705 701 134 -.04196025403784445 0 -.0512457565620891
 18 705 22 0 706 695 0 696 ?117 17 706 0 0 0 0 705 703 693 0 707 +18 695 20 0 69
7 700 705 134 ?117 17 697 0 708 707 702 695 699 136 0 709 +15 708 29 0 707 692 0
 17 707 0 708 703 697 705 709 710 0 0 -17 702 0 708 697 703 137 711 698 0 0 +17
 709 0 0 0 0 695 707 710 0 0 +16 710 16 0 ?709 693 0 712 0 0 117 16 693 28 0 ?70
6 698 710 133 0 0 117 30 712 24 0 710 713 694 0 +-.04196025403784445 0 -.0512457
565620891 .866025403784438 -530287619362454e-31 .5 30 713 7 0 698 0 712 0 +-.055
3102540378445 0 -.02812287828104455 .866025403784438 -530287619362454e-31 .5 30
 694 32 0 136 712 133 0 +-.0379897459621557 -1060575238724908e-33 -.018122878281
04455 .5 0 -.866025403784438 16 698 6 0 ?702 136 693 713 0 0 117 17 703 0 708 70
2 707 700 706 693 0 711 -17 711 0 0 0 0 700 702 698 0 0 -14 692 30 714 ?0 0 708
 131 132 +0 0 0 0 131 81 1 714 61 364 692 715 0 0 0 716 81 1 715 59 392 692 0 71
4 0 0 717 83 3 716 .792156862745098 .819607843137255 .933333333333333 82 1 717 -
2103901929 74 20 691 3 0 0 715 714 128 0 0 0 0 0 0 0 0 0 0 0 0 0 0 0 0 0 84 12 6
90 Sensor_Mount81 1 115 82 5 104 0 0 0 0 718 70 116 0 4 T104 0 0 3 20 1 719 719
 13 118 3 0 104 0 720 0 0 122 720 50 119 31 0 720 0 0 0 +.0333 -.01 -.0462457565
62089 -.5 0 -.866025403784439 .866025403784439 0 -.5 30 120 33 0 721 722 0 0 +.0
333 -.01 -.046245756562089 0 1 0 29 121 25 0 723 724 0 .0419602540378445 .01 -.0
51245756562089 19 122 1 0 104 0 0 118 V0 16 123 27 0 ?725 0 726 722 0 0 104 18 1
24 5 0 727 0 728 729 ?104 17 727 0 0 0 0 124 730 726 0 731 +18 728 2 0 732 124 7
23 733 ?104 29 729 8 0 124 733 724 .0419602540378445 -.01 -.051245756562089 29 7
33 4 0 728 0 729 .0333 -.01 -.046245756562089 29 724 26 0 734 729 121 .0333 .01
 -.046245756562089 18 734 22 0 735 723 0 724 ?104 17 735 0 736 737 730 734 732 7
21 0 738 +18 723 20 0 725 728 734 121 ?104 17 725 0 0 0 0 723 731 123 0 737 +17
 731 0 736 730 737 124 725 123 0 0 -17 737 0 736 731 735 723 738 739 0 0 +15 736
 29 0 737 720 0 17 738 0 0 0 0 734 737 739 0 0 -16 739 16 0 ?737 721 0 740 0 0 1
04 16 721 28 0 ?735 726 739 120 0 0 104 30 740 24 0 739 741 722 0 +.0333 .01 -.0
46245756562089 .866025403784439 0 -.5 30 741 7 0 726 0 740 0 +.0333 -.01 -.04624
5756562089 .866025403784439 0 -.5 30 722 32 0 123 740 120 0 +.0419602540378445 -
.01 -.051245756562089 0 1 0 16 726 6 0 ?727 123 721 741 0 0 104 14 720 30 742 ?0
 0 736 118 119 +0 0 0 0 118 81 1 742 81 364 720 743 0 0 0 744 81 1 743 79 392 72
0 0 742 0 0 745 83 3 744 .792156862745098 .819607843137255 .933333333333333 82 1
 745 -2099248872 17 730 0 736 735 731 728 727 726 0 0 -17 732 0 0 0 0 728 735 72
1 0 730 -74 20 719 3 0 0 743 742 115 0 0 0 0 0 0 0 0 0 0 0 0 0 0 0 0 0 84 12 718
 Sensor_Mount81 1 102 82 5 91 0 0 0 0 746 70 103 0 4 T91 0 0 3 20 1 747 747 13 1
05 3 0 91 0 748 0 0 109 748 50 106 31 0 748 0 0 0 +.0333 -.01 -.046245756562089
 .5 0 .866025403784439 -.866025403784439 0 .5 30 107 33 0 749 750 0 0 +.0333 -.0
1 -.046245756562089 0 1 0 29 108 25 0 751 752 0 .0246397459621557 .01 -.04124575
656208905 19 109 1 0 91 0 0 105 V0 16 110 27 0 ?753 0 754 750 0 0 91 18 111 5 0
 755 0 756 757 ?91 17 755 0 0 0 0 111 758 754 0 759 +18 756 2 0 760 111 751 761
 ?91 29 757 8 0 111 761 752 .0246397459621557 -.01 -.04124575656208905 29 761 4
 0 756 0 757 .0333 -.01 -.046245756562089 29 752 26 0 762 757 108 .0333 .01 -.04
6245756562089 18 762 22 0 763 751 0 752 ?91 17 763 0 764 765 758 762 760 749 0 7
66 +18 751 20 0 753 756 762 108 ?91 17 753 0 0 0 0 751 759 110 0 765 +17 759 0 7
64 758 765 111 753 110 0 0 -17 765 0 764 759 763 751 766 767 0 0 +15 764 29 0 76
5 748 0 17 766 0 0 0 0 762 765 767 0 0 -16 767 16 0 ?765 749 0 768 0 0 91 16 749
 28 0 ?763 754 767 107 0 0 91 30 768 24 0 767 769 750 0 +.0333 .01 -.04624575656
2089 -.866025403784439 0 .5 30 769 7 0 754 0 768 0 +.0333 -.01 -.046245756562089
 -.866025403784439 0 .5 30 750 32 0 110 768 107 0 +.0246397459621557 -.01 -.0412
4575656208905 0 1 0 16 754 6 0 ?755 110 749 769 0 0 91 14 748 30 770 ?0 0 764 10
5 106 +0 0 0 0 105 81 1 770 81 364 748 771 0 0 0 772 81 1 771 79 392 748 0 770 0
 0 773 83 3 772 .792156862745098 .819607843137255 .933333333333333 82 1 773 -209
5382248 17 758 0 764 763 759 756 755 754 0 0 -17 760 0 0 0 0 756 763 749 0 758 -
74 20 747 3 0 0 771 770 102 0 0 0 0 0 0 0 0 0 0 0 0 0 0 0 0 0 84 12 746 Sensor_M
ount81 1 89 82 5 78 0 0 0 0 774 70 90 0 4 T78 0 0 3 20 1 775 775 13 92 3 0 78 0
 776 0 0 96 776 50 93 31 0 776 0 0 0 +.0553102540378445 0 -.02812287828104455 -4
59242549680258e-31 1 2651438096812275e-32 1 459242549680258e-31 0 30 94 33 0 777
 778 0 0 +.0553102540378445 0 -.02812287828104455 -.5 0 -.866025403784438 29 95
 25 0 779 780 0 .0246397459621557 -1060575238724908e-33 -.04124575656208905 19 9
6 1 0 78 0 0 92 V0 16 97 27 0 ?781 0 782 778 0 0 78 18 98 5 0 783 0 784 785 ?78
 17 783 0 0 0 0 98 786 782 0 787 +18 784 2 0 788 98 779 789 ?78 29 785 8 0 98 78
9 780 .0379897459621557 -1060575238724908e-33 -.01812287828104455 29 789 4 0 784
 0 785 .0553102540378445 0 -.02812287828104455 29 780 26 0 790 785 95 .041960254
03784445 0 -.0512457565620891 18 790 22 0 791 779 0 780 ?78 17 791 0 792 793 786
 790 788 777 0 794 +18 779 20 0 781 784 790 95 ?78 17 781 0 0 0 0 779 787 97 0 7
93 +17 787 0 792 786 793 98 781 97 0 0 -17 793 0 792 787 791 779 794 795 0 0 +15
 792 29 0 793 776 0 17 794 0 0 0 0 790 793 795 0 0 -16 795 16 0 ?793 777 0 796 0
 0 78 16 777 28 0 ?791 782 795 94 0 0 78 30 796 24 0 795 797 778 0 +.04196025403
784445 0 -.0512457565620891 -.866025403784438 -530287619362454e-31 .5 30 797 7 0
 782 0 796 0 +.0553102540378445 0 -.02812287828104455 -.866025403784438 -5302876
19362454e-31 .5 30 778 32 0 97 796 94 0 +.0379897459621557 -1060575238724908e-33
 -.01812287828104455 -.5 0 -.866025403784438 16 782 6 0 ?783 97 777 797 0 0 78 1
4 776 30 798 ?0 0 792 92 93 +0 0 0 0 92 81 1 798 81 364 776 799 0 0 0 800 81 1 7
99 79 392 776 0 798 0 0 801 83 3 800 .792156862745098 .819607843137255 .93333333
3333333 82 1 801 -2091515624 17 786 0 792 791 787 784 783 782 0 0 -17 788 0 0 0
 0 784 791 777 0 786 -74 20 775 3 0 0 799 798 89 0 0 0 0 0 0 0 0 0 0 0 0 0 0 0 0
 0 84 12 774 Sensor_Mount81 1 76 82 5 65 0 0 0 0 802 70 77 0 4 T65 0 0 3 20 1 80
3 803 13 79 3 0 65 0 804 0 0 83 804 50 80 31 0 804 0 0 0 +.04665 -.01 -.02312287
82810445 -.5 0 -.866025403784439 .866025403784439 0 -.5 30 81 33 0 805 806 0 0 +
.04665 -.01 -.0231228782810445 0 1 0 29 82 25 0 807 808 0 .0553102540378445 .01
 -.0281228782810445 19 83 1 0 65 0 0 79 V0 16 84 27 0 ?809 0 810 806 0 0 65 18 8
5 5 0 811 0 812 813 ?65 17 811 0 0 0 0 85 814 810 0 815 +18 812 2 0 816 85 807 8
17 ?65 29 813 8 0 85 817 808 .0553102540378445 -.01 -.0281228782810445 29 817 4
 0 812 0 813 .04665 -.01 -.0231228782810445 29 808 26 0 818 813 82 .04665 .01 -.
0231228782810445 18 818 22 0 819 807 0 808 ?65 17 819 0 820 821 814 818 816 805
 0 822 +18 807 20 0 809 812 818 82 ?65 17 809 0 0 0 0 807 815 84 0 821 +17 815 0
 820 814 821 85 809 84 0 0 -17 821 0 820 815 819 807 822 823 0 0 +15 820 29 0 82
1 804 0 17 822 0 0 0 0 818 821 823 0 0 -16 823 16 0 ?821 805 0 824 0 0 65 16 805
 28 0 ?819 810 823 81 0 0 65 30 824 24 0 823 825 806 0 +.04665 .01 -.02312287828
10445 .866025403784439 0 -.5 30 825 7 0 810 0 824 0 +.04665 -.01 -.0231228782810
445 .866025403784439 0 -.5 30 806 32 0 84 824 81 0 +.0553102540378445 -.01 -.028
1228782810445 0 1 0 16 810 6 0 ?811 84 805 825 0 0 65 14 804 30 826 ?0 0 820 79
 80 +0 0 0 0 79 81 1 826 81 364 804 827 0 0 0 828 81 1 827 79 392 804 0 826 0 0
 829 83 3 828 .792156862745098 .819607843137255 .933333333333333 82 1 829 -20876
49000 17 814 0 820 819 815 812 811 810 0 0 -17 816 0 0 0 0 812 819 805 0 814 -74
 20 803 3 0 0 827 826 76 0 0 0 0 0 0 0 0 0 0 0 0 0 0 0 0 0 84 12 802 Sensor_Moun
t81 1 63 86 5 52 0 0 0 0 830 70 64 0 4 T52 0 0 3 20 1 831 831 13 66 3 0 52 0 832
 0 0 70 832 50 67 31 0 832 0 0 0 +.04665 -.01 -.0231228782810445 .5 0 .866025403
784439 -.866025403784439 0 .5 30 68 33 0 833 834 0 0 +.04665 -.01 -.023122878281
0445 0 1 0 29 69 25 0 835 836 0 .03798974596215575 .01 -.0181228782810445 19 70
 1 0 52 0 0 66 V0 16 71 27 0 ?837 0 838 834 0 0 52 18 72 5 0 839 0 840 841 ?52 1
7 839 0 0 0 0 72 842 838 0 843 +18 840 2 0 844 72 835 845 ?52 29 841 8 0 72 845
 836 .03798974596215575 -.01 -.0181228782810445 29 845 4 0 840 0 841 .04665 -.01
 -.0231228782810445 29 836 26 0 846 841 69 .04665 .01 -.0231228782810445 18 846
 22 0 847 835 0 836 ?52 17 847 0 848 849 842 846 844 833 0 850 +18 835 20 0 837
 840 846 69 ?52 17 837 0 0 0 0 835 843 71 0 849 +17 843 0 848 842 849 72 837 71
 0 0 -17 849 0 848 843 847 835 850 851 0 0 +15 848 29 0 849 832 0 17 850 0 0 0 0
 846 849 851 0 0 -16 851 16 0 ?849 833 0 852 0 0 52 16 833 28 0 ?847 838 851 68
 0 0 52 30 852 24 0 851 853 834 0 +.04665 .01 -.0231228782810445 -.8660254037844
39 0 .5 30 853 7 0 838 0 852 0 +.04665 -.01 -.0231228782810445 -.866025403784439
 0 .5 30 834 32 0 71 852 68 0 +.03798974596215575 -.01 -.0181228782810445 0 1 0
 16 838 6 0 ?839 71 833 853 0 0 52 14 832 30 854 ?0 0 848 66 67 +0 0 0 0 66 81 1
 854 85 364 832 855 0 0 0 856 81 1 855 83 392 832 0 854 0 0 857 83 3 856 .792156
862745098 .819607843137255 .933333333333333 82 1 857 -2083782376 17 842 0 848 84
7 843 840 839 838 0 0 -17 844 0 0 0 0 840 847 833 0 842 -74 20 831 3 0 0 855 854
 63 0 0 0 0 0 0 0 0 0 0 0 0 0 0 0 0 0 84 12 830 Sensor_Mount81 1 50 82 5 39 0 0
 0 0 858 70 51 0 4 T39 0 0 3 20 1 859 859 13 53 3 0 39 0 860 0 0 57 860 50 54 31
 0 860 0 0 0 +.06 -.01 0 -.866025403784439 0 .5 -.5 0 -.866025403784439 30 55 33
 0 861 862 0 0 +.06 -.01 0 0 1 0 29 56 25 0 863 864 0 .04665 .01 -.0231228782810
445 19 57 1 0 39 0 0 53 V0 16 58 27 0 ?865 0 866 862 0 0 39 18 59 5 0 867 0 868
 869 ?39 17 867 0 0 0 0 59 870 866 0 871 +18 868 2 0 872 59 863 873 ?39 29 869 8
 0 59 873 864 .04665 -.01 -.0231228782810445 29 873 4 0 868 0 869 .06 -.01 0 29
 864 26 0 874 869 56 .06 .01 0 18 874 22 0 875 863 0 864 ?39 17 875 0 876 877 87
0 874 872 861 0 878 +18 863 20 0 865 868 874 56 ?39 17 865 0 0 0 0 863 871 58 0
 877 +17 871 0 876 870 877 59 865 58 0 0 -17 877 0 876 871 875 863 878 879 0 0 +
15 876 29 0 877 860 0 17 878 0 0 0 0 874 877 879 0 0 -16 879 16 0 ?877 861 0 880
 0 0 39 16 861 28 0 ?875 866 879 55 0 0 39 30 880 24 0 879 881 862 0 +.06 .01 0
 -.5 0 -.866025403784439 30 881 7 0 866 0 880 0 +.06 -.01 0 -.5 0 -.866025403784
439 30 862 32 0 58 880 55 0 +.04665 -.01 -.0231228782810445 0 1 0 16 866 6 0 ?86
7 58 861 881 0 0 39 14 860 30 882 ?0 0 876 53 54 +0 0 0 0 53 81 1 882 81 364 860
 883 0 0 0 884 81 1 883 79 392 860 0 882 0 0 885 83 3 884 .792156862745098 .8196
07843137255 .933333333333333 82 1 885 -2079915752 17 870 0 876 875 871 868 867 8
66 0 0 -17 872 0 0 0 0 868 875 861 0 870 -74 20 859 3 0 0 883 882 50 0 0 0 0 0 0
 0 0 0 0 0 0 0 0 0 0 0 84 12 858 Sensor_Mount81 1 37 62 5 26 0 0 0 0 886 70 38 0
 4 T26 0 0 3 20 1 887 887 13 40 3 0 26 0 888 0 0 44 888 50 41 31 0 888 0 0 0 +-.
01995 -.01 -.0693686348431335 -.866025403784439 0 -.5 -.5 0 .866025403784439 30
 42 33 0 889 890 0 0 +-.01995 -.01 -.0693686348431335 0 1 0 29 43 25 0 891 892 0
 -.0333 .01 -.046245756562089 19 44 1 0 26 0 0 40 V0 16 45 27 0 ?893 0 894 890 0
 0 26 18 46 5 0 895 0 896 897 ?26 17 895 0 0 0 0 46 893 45 0 898 -18 896 2 0 899
 46 891 900 ?26 29 897 8 0 46 900 892 -.0333 -.01 -.046245756562089 29 900 4 0 8
96 0 897 -.01995 -.01 -.0693686348431335 29 892 26 0 901 897 43 -.01995 .01 -.06
93686348431335 18 901 22 0 902 891 0 892 ?26 17 902 0 0 0 0 901 899 889 0 903 +1
8 891 20 0 893 896 901 43 ?26 17 893 0 904 903 898 891 895 45 0 905 +15 904 29 0
 903 888 0 17 903 0 904 899 893 901 905 906 0 0 -17 898 0 904 893 899 46 907 894
 0 0 +17 905 0 0 0 0 891 903 906 0 0 +16 906 16 0 ?905 889 0 908 0 0 26 16 889 2
8 0 ?902 894 906 42 0 0 26 30 908 24 0 906 909 890 0 +-.01995 .01 -.069368634843
1335 -.5 0 .866025403784438 30 909 7 0 894 0 908 0 +-.01995 -.01 -.0693686348431
335 -.5 0 .866025403784438 30 890 32 0 45 908 42 0 +-.0333 -.01 -.04624575656208
9 0 1 0 16 894 6 0 ?898 45 889 909 0 0 26 17 899 0 904 898 903 896 902 889 0 907
 -17 907 0 0 0 0 896 898 894 0 0 -14 888 30 910 ?0 0 904 40 41 +0 0 0 0 40 81 1
 910 61 364 888 911 0 0 0 912 81 1 911 59 392 888 0 910 0 0 913 83 3 912 .792156
862745098 .819607843137255 .933333333333333 82 1 913 -2123824875 74 20 887 3 0 0
 911 910 37 0 0 0 0 0 0 0 0 0 0 0 0 0 0 0 0 0 84 12 886 Sensor_Mount81 1 24 82 5
 13 0 0 0 0 914 70 25 0 4 T13 0 0 3 20 1 915 915 13 27 3 0 13 0 916 0 0 31 916 5
0 28 31 0 916 0 0 0 +.01995 -.01 -.0693686348431335 .866025403784439 0 -.5 .5 0
 .866025403784439 30 29 33 0 917 918 0 0 +.01995 -.01 -.0693686348431335 0 1 0 2
9 30 25 0 919 920 0 .0333 .01 -.046245756562089 19 31 1 0 13 0 0 27 V0 16 32 27
 0 ?921 0 922 918 0 0 13 18 33 5 0 923 0 924 925 ?13 17 923 0 0 0 0 33 926 922 0
 927 +18 924 2 0 928 33 919 929 ?13 29 925 8 0 33 929 920 .0333 -.01 -.046245756
562089 29 929 4 0 924 0 925 .01995 -.01 -.0693686348431335 29 920 26 0 930 925 3
0 .01995 .01 -.0693686348431335 18 930 22 0 931 919 0 920 ?13 17 931 0 932 933 9
26 930 928 917 0 934 +18 919 20 0 921 924 930 30 ?13 17 921 0 0 0 0 919 927 32 0
 933 +17 927 0 932 926 933 33 921 32 0 0 -17 933 0 932 927 931 919 934 935 0 0 +
15 932 29 0 933 916 0 17 934 0 0 0 0 930 933 935 0 0 -16 935 16 0 ?933 917 0 936
 0 0 13 16 917 28 0 ?931 922 935 29 0 0 13 30 936 24 0 935 937 918 0 +.01995 .01
 -.0693686348431335 .5 0 .866025403784438 30 937 7 0 922 0 936 0 +.01995 -.01 -.
0693686348431335 .5 0 .866025403784438 30 918 32 0 32 936 29 0 +.0333 -.01 -.046
245756562089 0 1 0 16 922 6 0 ?923 32 917 937 0 0 13 14 916 30 938 ?0 0 932 27 2
8 +0 0 0 0 27 81 1 938 81 364 916 939 0 0 0 940 81 1 939 79 392 916 0 938 0 0 94
1 83 3 940 .792156862745098 .819607843137255 .933333333333333 82 1 941 -20760491
28 17 926 0 932 931 927 924 923 922 0 0 -17 928 0 0 0 0 924 931 917 0 926 -74 20
 915 3 0 0 939 938 24 0 0 0 0 0 0 0 0 0 0 0 0 0 0 0 0 0 84 12 914 Sensor_Mount81
 1 11 90 5 7 0 0 0 0 942 70 12 0 4 T7 0 0 3 20 1 943 943 13 14 3 0 7 0 944 0 0 1
8 944 50 15 31 0 944 0 0 0 +.01995 -.011 -.0693686348431335 0 0 -1 -1 0 0 31 16
 53 0 19 945 0 0 +0 0 -.0693686348431335 0 0 -1 -1 0 0 .0035 29 17 25 0 946 947
 0 -.01995 .011 -.0693686348431335 19 18 1 0 7 0 0 14 V0 16 19 54 0 ?948 0 949 1
6 0 0 7 18 20 5 0 950 0 951 952 ?7 17 950 0 0 0 0 20 953 949 0 954 -18 951 2 0 9
55 20 946 956 ?7 29 952 8 0 20 956 947 -.01995 -.011 -.0693686348431335 29 956 4
 0 951 0 952 .01995 -.011 -.0693686348431335 29 947 26 0 957 952 17 .01995 .011
 -.0693686348431335 18 957 22 0 958 946 0 947 ?7 17 958 0 0 0 0 957 955 959 0 96
0 +18 946 20 0 953 951 957 17 ?7 17 953 0 961 960 954 946 950 949 0 962 +15 961
 29 0 960 944 0 17 960 0 961 955 953 957 962 963 0 0 -17 954 0 961 953 955 20 96
4 965 0 0 +16 949 27 0 ?953 19 965 966 0 0 7 17 962 0 0 0 0 946 960 963 0 0 +16
 963 16 0 ?962 959 0 967 0 0 7 16 959 28 0 ?958 965 963 945 0 0 7 30 967 24 0 96
3 968 966 0 +.01995 .011 -.0693686348431335 -1 0 0 30 968 7 0 965 0 967 0 +.0199
5 -.011 -.0693686348431335 -1 0 0 30 966 32 0 949 967 945 0 +-.01995 -.011 -.069
3686348431335 0 1 0 30 945 33 0 959 966 16 0 +.01995 -.011 -.0693686348431335 0
 1 0 16 965 6 0 ?954 949 959 968 0 0 7 17 955 0 961 954 960 951 958 959 0 964 -1
7 964 0 0 0 0 951 954 965 0 0 -14 944 30 969 ?0 0 970 14 15 +0 0 0 0 14 81 1 969
 89 364 944 971 0 0 0 972 15 970 56 0 973 944 961 17 973 0 970 973 973 0 948 19
 0 0 -17 948 0 0 0 0 0 973 19 0 0 +81 1 971 87 392 944 0 969 0 0 974 83 3 972 .7
92156862745098 .819607843137255 .933333333333333 82 1 974 -2063793893 74 20 943
 3 0 0 971 969 11 0 0 0 0 0 0 0 0 0 0 0 0 0 0 0 0 0 84 12 942 Sensor_Mount74 20
 6 1 0 0 2 0 0 0 0 0 0 0 0 0 0 0 0 0 0 0 0 0 0 0 1 0 
